<svg xmlns="http://www.w3.org/2000/svg" width="228.398" height="207.988" viewBox="0 0 228.398 207.988">
    <defs>
        <style>
            .cls-2{fill:#070203}
        </style>
    </defs>
    <g id="캐릭터" transform="translate(-839.602 -341.032)">
        <g id="그룹_77" transform="translate(-2439.69 1013.031)">
            <g id="그룹_51" transform="translate(3376.461 -672)">
                <g id="그룹_50">
                    <path id="패스_43" fill="#fcc645" d="M2546.854 765.007c-10.04 19.356-14.925 76.528-12.726 144.133 2.2 67.5 59.222 50.927 84.062 47.935 24.89-3 45.654-15.8 46.559-33.4 1-19.407-6.033-31.257-35.279-38.381-35.149-8.562-7.553-80.591-13.412-109.674-5.121-25.42-59.165-29.969-69.204-10.613z" transform="translate(-2533.608 -753.042)"/>
                </g>
            </g>
            <g id="그룹_60" transform="translate(3415.345 -645.153)">
                <circle id="타원_7" cx="1.951" cy="1.951" r="1.951" class="cls-2"/>
            </g>
            <g id="그룹_61" transform="translate(3426.199 -644.203)">
                <circle id="타원_8" cx="1.951" cy="1.951" r="1.951" class="cls-2"/>
            </g>
        </g>
        <g id="그룹_74" transform="translate(196 -100)">
            <g id="그룹_52" transform="translate(643.602 492.712)">
                <path id="패스_44" fill="#004b9b" d="M2358.892 991.6c-9.669 45.049 7.345 87.4 16.729 102.816 15.54 25.521 33.222 24.382 43.028 15.56 9.5-8.55 8.618-24.193 14.145-32.78 7.376-11.459 22.539-14.26 32.453-26.572 10.772-13.378 29.1-75.726-28.24-87.612s-73.77 8.346-78.115 28.588z" transform="translate(-2356.012 -959.474)"/>
            </g>
            <g id="그룹_53" transform="translate(739.944 532.717)">
                <path id="패스_45" d="M2603.526 1069.994a2.554 2.554 0 0 1-2.3-2.786l.348-3.643a2.555 2.555 0 0 1 5.086.486l-.348 3.643a2.555 2.555 0 0 1-2.786 2.3z" class="cls-2" transform="translate(-2601.214 -1061.253)"/>
            </g>
            <g id="그룹_54" transform="translate(724.77 531.267)">
                <path id="패스_46" d="M2564.906 1066.306a2.556 2.556 0 0 1-2.3-2.786l.348-3.643a2.555 2.555 0 1 1 5.086.486l-.348 3.643a2.555 2.555 0 0 1-2.786 2.3z" class="cls-2" transform="translate(-2562.594 -1057.564)"/>
            </g>
        </g>
    </g>
</svg>
