<svg xmlns="http://www.w3.org/2000/svg" width="302.371" height="197.999" viewBox="0 0 302.371 197.999">
    <defs>
        <style>
            .cls-2{fill:#070203}
        </style>
    </defs>
    <g id="캐릭터" transform="translate(-922 -333.122)">
        <g id="_" transform="translate(1168.894 361.43)">
            <g id="구성_요소_5_1" transform="translate(-35.103 -28.309)">
                <g id="그룹_47">
                    <path id="패스_41" fill="#e1383e" d="M2837.682 903.31c-24.367-4.153-43.338 2.117-48.661 26.671-2.1 9.684-6.083 96.473-5.626 119.349.459 23-.154 46.926 27.338 50.492 27.122 3.518 35.081-24.5 40.439-42.27 6.2-20.576 18.97-92.661 22.329-116.07 3.235-22.545-11.762-34.072-35.819-38.172z" transform="translate(-2783.358 -902.125)"/>
                </g>
            </g>
            <path id="패스_51" d="M2866.915 969.632a1.881 1.881 0 0 1-1.881-1.881 1.677 1.677 0 1 0-3.354 0 1.881 1.881 0 1 1-3.763 0 5.44 5.44 0 1 1 10.88 0 1.881 1.881 0 0 1-1.882 1.881z" class="cls-2" transform="translate(-2857.916 -962.31)"/>
            <path id="패스_50" d="M2826.541 969.632a1.881 1.881 0 0 1-1.882-1.881 1.677 1.677 0 1 0-3.354 0 1.881 1.881 0 1 1-3.763 0 5.44 5.44 0 1 1 10.88 0 1.882 1.882 0 0 1-1.881 1.881z" class="cls-2" transform="translate(-2836.524 -962.31)"/>
        </g>
        <g id="i" transform="translate(1056.588 362.563)">
            <path id="패스_42" fill="#5aaa4d" d="M2935.919 960.385c-14.718-.339-23.04 3.158-28.586 8.6-5.26 5.163-8.42 12.011-8.5 21.039-.207 22.8 17.414 22.973 16.142 37.7-1.105 12.8-16.9 9.468-20.085 47.42-.832 9.933-1.145 39.946-.687 53.585.482 14.363 20.684 17.805 36.758 17.7 15.172-.1 34.766-2.474 36.23-17.43 1.709-17.47 1.352-37.6 1.049-50.331-.936-39.417-17.016-35.325-16.727-50 .3-15.276 18.461-14.583 19.539-37.219a28.98 28.98 0 0 0-6.221-19.058c-4.931-6.18-13.078-11.642-28.912-12.006z" transform="translate(-2912.749 -983.411)"/>
            <path id="패스_48" d="M2936.643 1019.826a3.058 3.058 0 0 1-2.753-3.334l.416-4.36a3.058 3.058 0 0 1 6.087.581l-.417 4.359a3.057 3.057 0 0 1-3.333 2.754z" class="cls-2" transform="translate(-2933.876 -1009.366)"/>
            <path id="패스_47" d="M2975.263 1023.514a3.057 3.057 0 0 1-2.753-3.334l.417-4.359a3.057 3.057 0 1 1 6.087.581l-.417 4.359a3.057 3.057 0 0 1-3.334 2.753z" class="cls-2" transform="translate(-2954.331 -1011.319)"/>
        </g>
        <g id="a" transform="translate(980.204 410.139)">
            <path id="패스_49" fill="#eca4c6" d="M2747.519 1053.373c-21.589 4.161-26.327 12.973-31.062 37.076s-15.788 81.715-9.363 97.552 48.493 16.36 54.369 1.1c4.264-11.076 17.577-13.9 26.972-4.726 13.225 12.921 48.518-3.116 48.982-19.607.5-17.975-30.428-67.646-42.276-83.763-17.973-24.451-24.876-32.015-47.622-27.632z" transform="translate(-2763.341 -1083.626)"/>
            <circle id="타원_6" cx="2.687" cy="2.687" r="2.687" class="cls-2"/>
            <circle id="타원_5" cx="2.687" cy="2.687" r="2.687" class="cls-2" transform="translate(-14.978 .95)"/>
        </g>
    </g>
</svg>
