<svg xmlns="http://www.w3.org/2000/svg" width="122" height="37.096" viewBox="0 0 122 37.096">
    <defs>
        <style>
            .cls-1{fill:#1a1311}
        </style>
    </defs>
    <g id="logo" transform="translate(-1448.895 -964.376)">
        <g id="그룹_1" transform="translate(1552.233 965.916)">
            <path id="패스_1" d="M1650.977 986.668l4.219-19.18a.265.265 0 0 1 .325-.184l10.6 2.936a.264.264 0 0 1 .184.325l-5.748 18.767a.264.264 0 0 1-.326.184l-9.066-2.523a.264.264 0 0 1-.188-.325z" class="cls-1" transform="translate(-1647.65 -967.294)"/>
            <path id="패스_2" d="M1645.44 1018.3a5.785 5.785 0 1 1 3.481 2.711 5.552 5.552 0 0 1-3.481-2.711z" class="cls-1" transform="translate(-1644.681 -987.309)"/>
        </g>
        <path id="패스_3" d="M1465.484 992.181l2.027 8.45a.264.264 0 0 1-.2.319l-10.691 2.565a.265.265 0 0 1-.319-.2l-7.4-30.861a.264.264 0 0 1 .2-.319l12.89-3.092a11.787 11.787 0 0 1 14.277 8.809q2.421 10.888-8.6 13.531l-1.984.476a.264.264 0 0 0-.2.322zm-3.226-13.447l.952 3.968a.264.264 0 0 0 .319.2l1.713-.411a2.53 2.53 0 0 0 1.872-3.2 1.987 1.987 0 0 0-2.676-1.346l-1.984.476a.265.265 0 0 0-.196.313z" class="cls-1" transform="translate(0 -2.05)"/>
        <path id="패스_4" d="M1509.06 966.019l10.83 1.9a.265.265 0 0 1 .215.306l-3.89 22.18a.264.264 0 0 0 .215.306l8.559 1.5a.265.265 0 0 1 .215.307l-1.5 8.559a.264.264 0 0 1-.306.215l-19.91-3.492a.264.264 0 0 1-.215-.306l5.482-31.26a.264.264 0 0 1 .305-.215z" class="cls-1" transform="translate(-25.674 -.774)"/>
        <path id="패스_5" d="M1560.953 1000.794l-.309 1.939a.264.264 0 0 1-.238.222l-10.925.953a.264.264 0 0 1-.282-.313l6.274-32.405a.264.264 0 0 1 .236-.213l13.379-1.167a.264.264 0 0 1 .27.169l11.792 30.828a.264.264 0 0 1-.224.358l-10.926.954a.265.265 0 0 1-.273-.177l-.64-1.856a.264.264 0 0 0-.273-.177l-7.625.665a.265.265 0 0 0-.236.22zm4.861-10.209l-1.868-5.417a.264.264 0 0 0-.511.045l-.9 5.659a.264.264 0 0 0 .284.305l2.769-.242a.264.264 0 0 0 .226-.35z" class="cls-1" transform="translate(-47.36 -2.565)"/>
        <g id="그룹_2" transform="translate(1537.362 964.376)">
            <path id="패스_6" d="M1628.16 989.836l-.132 19.617a.264.264 0 0 1-.266.263l-10.994-.074a.264.264 0 0 1-.263-.266l.132-19.617a.264.264 0 0 1 .266-.263l10.994.074a.264.264 0 0 1 .263.266z" class="cls-1" transform="translate(-1616.505 -976.237)"/>
            <path id="패스_7" d="M1626.724 966.087a5.785 5.785 0 1 1-4.067-1.711 5.552 5.552 0 0 1 4.067 1.711z" class="cls-1" transform="translate(-1616.671 -964.376)"/>
        </g>
    </g>
</svg>
