<svg xmlns="http://www.w3.org/2000/svg" width="344.694" height="215.173" viewBox="0 0 344.694 215.173">
  <g id="캐릭터" transform="translate(-787 -332.012)">
    <g id="캐릭터-2" data-name="캐릭터" transform="translate(-74.602 -9.02)">
      <g id="그룹_77" data-name="그룹 77" transform="translate(-2439.69 1013.031)">
        <g id="그룹_51" data-name="그룹 51" transform="translate(3376.461 -672)">
          <g id="그룹_50" data-name="그룹 50" transform="translate(0)">
            <path id="패스_43" data-name="패스 43" d="M2546.854,765.007c-10.04,19.356-14.925,76.528-12.726,144.133,2.2,67.5,59.222,50.927,84.062,47.935,24.89-3,45.654-15.8,46.559-33.4,1-19.407-6.033-31.257-35.279-38.381-35.149-8.562-7.553-80.591-13.412-109.674C2610.937,750.2,2556.893,745.651,2546.854,765.007Z" transform="translate(-2533.608 -753.042)" fill="#fcc645"/>
          </g>
        </g>
        <g id="그룹_60" data-name="그룹 60" transform="translate(3415.345 -645.153)">
          <circle id="타원_7" data-name="타원 7" cx="1.951" cy="1.951" r="1.951" transform="translate(0)" fill="#070203"/>
        </g>
        <g id="그룹_61" data-name="그룹 61" transform="translate(3426.199 -644.203)">
          <circle id="타원_8" data-name="타원 8" cx="1.951" cy="1.951" r="1.951" transform="translate(0 0)" fill="#070203"/>
        </g>
      </g>
      <g id="그룹_74" data-name="그룹 74" transform="translate(218 -100)">
        <g id="그룹_52" data-name="그룹 52" transform="translate(643.602 492.712)">
          <path id="패스_44" data-name="패스 44" d="M2358.892,991.6c-9.669,45.049,7.345,87.4,16.729,102.816,15.54,25.521,33.222,24.382,43.028,15.56,9.5-8.55,8.618-24.193,14.145-32.78,7.376-11.459,22.539-14.26,32.453-26.572,10.772-13.378,29.1-75.726-28.24-87.612S2363.237,971.358,2358.892,991.6Z" transform="translate(-2356.012 -959.474)" fill="#004b9b"/>
        </g>
        <g id="그룹_53" data-name="그룹 53" transform="translate(739.944 532.717)">
          <path id="패스_45" data-name="패스 45" d="M2603.526,1069.994a2.554,2.554,0,0,1-2.3-2.786l.348-3.643a2.555,2.555,0,0,1,5.086.486l-.348,3.643A2.555,2.555,0,0,1,2603.526,1069.994Z" transform="translate(-2601.214 -1061.253)" fill="#070203"/>
        </g>
        <g id="그룹_54" data-name="그룹 54" transform="translate(724.77 531.267)">
          <path id="패스_46" data-name="패스 46" d="M2564.906,1066.306a2.556,2.556,0,0,1-2.3-2.786l.348-3.643a2.555,2.555,0,1,1,5.086.486l-.348,3.643A2.555,2.555,0,0,1,2564.906,1066.306Z" transform="translate(-2562.594 -1057.564)" fill="#070203"/>
        </g>
      </g>
    </g>
    <g id="캐릭터-3" data-name="캐릭터" transform="matrix(0.999, 0.035, -0.035, 0.999, 15.314, -17.478)">
      <g id="_" data-name="!" transform="translate(1027.527 343.675)">
        <g id="구성_요소_5_4" data-name="구성 요소 5 – 4" transform="translate(-35.103 -28.309)">
          <g id="그룹_47" data-name="그룹 47">
            <path id="패스_41" data-name="패스 41" d="M2837.682,903.31c-24.367-4.153-43.338,2.117-48.661,26.671-2.1,9.684-6.083,96.473-5.626,119.349.459,23-.154,46.926,27.338,50.492,27.122,3.518,35.081-24.5,40.439-42.27,6.2-20.576,18.97-92.661,22.329-116.07C2876.736,918.937,2861.739,907.41,2837.682,903.31Z" transform="translate(-2783.358 -902.125)" fill="#e1383e"/>
          </g>
        </g>
        <path id="패스_51" data-name="패스 51" d="M2866.915,969.632a1.881,1.881,0,0,1-1.881-1.881,1.677,1.677,0,1,0-3.354,0,1.881,1.881,0,1,1-3.763,0,5.44,5.44,0,1,1,10.88,0A1.881,1.881,0,0,1,2866.915,969.632Z" transform="translate(-2857.916 -962.31)" fill="#070203"/>
        <path id="패스_50" data-name="패스 50" d="M2826.541,969.632a1.881,1.881,0,0,1-1.882-1.881,1.677,1.677,0,1,0-3.354,0,1.881,1.881,0,1,1-3.763,0,5.44,5.44,0,1,1,10.88,0A1.882,1.882,0,0,1,2826.541,969.632Z" transform="translate(-2836.524 -962.31)" fill="#070203"/>
      </g>
      <g id="i" transform="translate(1070.588 362.563)">
        <path id="패스_42" data-name="패스 42" d="M2935.919,960.385c-14.718-.339-23.04,3.158-28.586,8.6-5.26,5.163-8.42,12.011-8.5,21.039-.207,22.8,17.414,22.973,16.142,37.7-1.105,12.8-16.9,9.468-20.085,47.42-.832,9.933-1.145,39.946-.687,53.585.482,14.363,20.684,17.805,36.758,17.7,15.172-.1,34.766-2.474,36.23-17.43,1.709-17.47,1.352-37.6,1.049-50.331-.936-39.417-17.016-35.325-16.727-50,.3-15.276,18.461-14.583,19.539-37.219a28.98,28.98,0,0,0-6.221-19.058C2959.9,966.211,2951.753,960.749,2935.919,960.385Z" transform="translate(-2912.749 -983.411)" fill="#5aaa4d"/>
        <path id="패스_48" data-name="패스 48" d="M2936.643,1019.826a3.058,3.058,0,0,1-2.753-3.334l.416-4.36a3.058,3.058,0,0,1,6.087.581l-.417,4.359A3.057,3.057,0,0,1,2936.643,1019.826Z" transform="translate(-2933.876 -1009.366)" fill="#070203"/>
        <path id="패스_47" data-name="패스 47" d="M2975.263,1023.514a3.057,3.057,0,0,1-2.753-3.334l.417-4.359a3.057,3.057,0,1,1,6.087.581l-.417,4.359A3.057,3.057,0,0,1,2975.263,1023.514Z" transform="translate(-2954.331 -1011.319)" fill="#070203"/>
      </g>
      <g id="a" transform="translate(980.204 410.139)">
        <path id="패스_49" data-name="패스 49" d="M2747.519,1053.373c-21.589,4.161-26.327,12.973-31.062,37.076s-15.788,81.715-9.363,97.552,48.493,16.36,54.369,1.1c4.264-11.076,17.577-13.9,26.972-4.726,13.225,12.921,48.518-3.116,48.982-19.607.5-17.975-30.428-67.646-42.276-83.763C2777.168,1056.554,2770.265,1048.99,2747.519,1053.373Z" transform="translate(-2763.341 -1083.626)" fill="#eca4c6"/>
        <circle id="타원_6" data-name="타원 6" cx="2.687" cy="2.687" r="2.687" fill="#070203"/>
        <circle id="타원_5" data-name="타원 5" cx="2.687" cy="2.687" r="2.687" transform="translate(-14.978 0.95)" fill="#070203"/>
      </g>
    </g>
  </g>
</svg>
